<svg width="120" height="120" viewBox="0 0 120 120" fill="none" xmlns="http://www.w3.org/2000/svg">
<path d="M69.1875 42.5625L73.875 7.6875C69.375 6.5625 64.875 3.75 60 3.75C55.125 3.75 50.625 6.5625 45.9375 7.875C41.25 9 36 8.8125 31.875 11.25C27.75 13.6875 25.125 18.375 21.75 21.75C18.375 25.125 13.6875 27.75 11.25 31.875C8.8125 36 9 41.25 7.6875 45.9375C6.5625 50.625 3.75 55.125 3.75 60C3.75 64.875 6.5625 69.375 7.875 74.0625C9 78.75 8.8125 84 11.25 88.125C13.6875 92.25 18.375 94.875 21.75 98.25C25.125 101.625 27.5625 106.312 31.875 108.75C36 111.188 41.25 111 45.9375 112.312C50.625 113.438 55.125 116.25 60 116.25C64.875 116.25 69.375 113.438 74.0625 112.125C78.75 110.812 84 111 88.125 108.562C92.25 106.125 94.875 101.438 98.25 98.0625C101.625 94.6875 106.312 92.25 108.75 87.9375C111.188 83.8125 111 78.5625 112.312 73.875C113.438 69.375 116.25 64.875 116.25 60C116.25 55.125 112.312 44.8125 112.312 44.8125L69.1875 42.5625Z" fill="#DDA85F"/>
<path d="M111.375 42C109.5 42.5625 106.875 42.375 104.062 41.25C100.125 39.75 97.6875 36.5625 96.9375 32.8125C95.0625 33.375 90.5625 32.8125 87.5625 30.9375C83.0625 28.125 82.125 20.25 82.125 20.25C77.0625 18.75 73.3125 12.75 73.875 7.6875C69.75 6.5625 64.5 6.75 60 6.75C55.5 6.75 51.375 9.375 47.25 10.5C42.9375 11.625 38.0625 11.4375 34.3125 13.6875C30.5625 15.9375 28.125 20.25 25.125 23.25C21.9375 26.4375 17.625 28.6875 15.5625 32.4375C13.3125 36.1875 13.5 41.0625 12.375 45.375C11.25 49.5 8.625 53.625 8.625 58.125C8.625 62.625 11.25 66.75 12.375 70.875C13.5 75.1875 13.3125 80.0625 15.5625 83.8125C17.8125 87.5625 22.125 90 25.125 93C28.3125 96.1875 30.5625 100.5 34.3125 102.563C38.0625 104.813 42.9375 104.625 47.25 105.75C51.375 106.875 55.5 109.5 60 109.5C64.5 109.5 68.625 106.875 72.75 105.75C77.0625 104.625 81.9375 104.813 85.6875 102.563C89.4375 100.313 91.875 96 94.875 93C98.0625 89.8125 102.375 87.5625 104.438 83.8125C106.688 80.0625 106.5 75.1875 107.625 70.875C108.75 66.75 113.25 63.375 113.813 58.875C115.313 51.5625 111.563 43.3125 111.375 42Z" fill="#F2CB7D"/>
<path d="M93.9375 20.25L91.3125 22.875L88.875 20.25L91.3125 17.8125L93.9375 20.25Z" fill="#DDA85F"/>
<path d="M104.625 33.375L103.5 34.6875L102.188 33.375L103.5 32.0625L104.625 33.375Z" fill="#DDA85F"/>
<path d="M95.25 24.75L93.9375 26.0625L92.625 24.75L93.9375 23.4375L95.25 24.75Z" fill="#DDA85F"/>
<path d="M83.625 13.3125L82.3125 14.625L81 13.3125L82.3125 12L83.625 13.3125Z" fill="#DDA85F"/>
<path d="M107.25 38.0625L105.938 39.375L104.625 38.0625L105.938 36.75L107.25 38.0625Z" fill="#DDA85F"/>
<path d="M108.375 33.375L107.062 34.6875L105.75 33.375L107.062 32.0625L108.375 33.375Z" fill="#DDA85F"/>
<path d="M22.1249 38.625C20.2499 41.8125 23.0624 47.625 26.8124 49.3125C32.2499 51.5625 35.4374 51.9375 38.8124 46.125C39.9374 44.0625 41.4374 38.625 40.8749 37.3125C40.1249 35.4375 36.9374 31.6875 34.8749 31.6875C29.0624 31.875 23.4374 36.375 22.1249 38.625Z" fill="#6D4934"/>
<path d="M23.0624 38.625C21.7499 40.875 25.1249 47.625 29.6249 47.0625C35.8124 46.3125 35.2499 33.5625 32.6249 33.5625C28.1249 33.5625 23.9999 36.9375 23.0624 38.625Z" fill="#A37F6A"/>
<path d="M84.75 73.3125C87.375 72.5625 89.25 67.875 88.125 65.0625C86.4375 60.75 84.75 58.875 79.875 60.1875C78.1875 60.75 74.25 62.8125 73.875 63.75C73.3125 65.25 72.9375 69 74.0625 70.125C77.25 73.3125 82.875 73.875 84.75 73.3125Z" fill="#6D4934"/>
<path d="M82.1249 68.8125C84.1874 68.25 87.3749 61.875 83.9999 61.5C78.1874 60.5625 73.6874 63.375 74.2499 66.5625C74.8124 69.75 80.6249 69.1875 82.1249 68.8125Z" fill="#A37F6A"/>
<path d="M46.6876 83.4375C46.1251 81.1875 42.0001 79.5 39.3751 80.625C35.6251 82.125 33.9376 83.4375 35.2501 87.75C35.6251 89.25 37.5001 92.625 38.4376 92.8125C39.7501 93.375 42.9376 93.5625 43.8751 92.625C46.6876 90 47.0626 85.125 46.6876 83.4375Z" fill="#6D4934"/>
<path d="M43.5 81.75C43.125 80.0625 35.25 82.5 36 85.5C37.5 90.5625 37.5 91.3125 39 91.125C41.8125 90.375 43.6875 83.0625 43.5 81.75Z" fill="#A37F6A"/>
<path d="M95.8124 47.8125C93.5624 48.375 91.8749 52.5 92.9999 55.125C94.4999 58.875 98.0624 59.4375 102 57.375C105.375 55.6875 105.562 49.6875 104.625 48.5625C101.812 45.75 97.4999 47.4375 95.8124 47.8125Z" fill="#6D4934"/>
<path d="M94.8751 49.875C93.7501 51.1875 92.8126 56.4375 95.6251 55.6875C100.688 54.1875 104.25 49.125 102 48.375C99.1876 47.4375 96.1876 48.375 94.8751 49.875Z" fill="#A37F6A"/>
<path d="M42.6375 30.21L46.35 26.4975L50.0625 30.21L46.35 33.9225L42.6375 30.21Z" fill="#6D4934"/>
<path d="M27.5737 62.7806L31.2844 59.0681L34.9969 62.7787L31.2862 66.4912L27.5737 62.7806Z" fill="#DDA85F"/>
<path d="M65.0588 84.0207L68.7713 80.3082L72.4838 84.0207L68.7713 87.7332L65.0588 84.0207Z" fill="#DDA85F"/>
<path d="M60.0713 73.6669L65.1094 68.6288L70.1475 73.6669L65.1094 78.705L60.0713 73.6669Z" fill="#DDA85F"/>
<path d="M46.3049 18.4256L51.3431 13.3875L56.3812 18.4256L51.3431 23.4638L46.3049 18.4256Z" fill="#DDA85F"/>
<path d="M77.1038 86.9006L80.8163 83.1881L84.5288 86.9006L80.8163 90.6131L77.1038 86.9006Z" fill="#6D4934"/>
<path d="M92.0176 66.0281L95.7301 62.3156L99.4426 66.0281L95.7301 69.7406L92.0176 66.0281Z" fill="#6D4934"/>
<path d="M78.3975 46.1944L80.2537 44.3381L82.11 46.1944L80.2537 48.0506L78.3975 46.1944Z" fill="#6D4934"/>
<path d="M25.7363 71.7488L27.5926 69.8925L29.4488 71.7488L27.5926 73.605L25.7363 71.7488Z" fill="#6D4934"/>
</svg>
