<svg width="118" height="125" viewBox="0 0 118 125" fill="none" xmlns="http://www.w3.org/2000/svg">
<g clip-path="url(#clip0_61_20)">
<path d="M59.5474 125.002C57.6172 124.996 55.6955 124.747 53.8272 124.261L53.4589 124.158L53.1174 123.987C40.7678 117.781 30.3492 109.583 22.1508 99.6211C15.3642 91.3267 10.0731 81.9094 6.51533 71.7922C2.26086 59.6794 0.214024 46.8988 0.47257 34.0601C0.477778 33.7906 0.482207 33.5825 0.482207 33.4391C0.482207 27.1981 3.93833 21.7221 9.28706 19.4882C13.3807 17.7785 50.549 2.47607 53.2345 1.37043C58.292 -1.16968 63.6873 0.950466 64.551 1.32118C66.4877 2.11488 100.847 16.2015 108.272 19.7455C115.925 23.3981 117.967 29.9597 117.967 33.2609C117.967 48.2069 115.384 62.175 110.291 74.7772C106.178 84.9783 100.348 94.3955 93.056 102.619C78.9863 118.489 64.9133 124.116 64.7776 124.165C63.0957 124.745 61.3257 125.028 59.5474 125.002ZM56.2378 116.785C57.4577 117.059 60.267 117.471 62.0979 116.801C64.4236 115.951 76.2031 109.828 87.2103 97.4122C102.418 80.2572 110.135 58.6922 110.146 33.3161C110.119 32.802 109.755 29.1352 104.91 26.823C97.6292 23.3476 61.9151 8.70977 61.555 8.56227L61.4564 8.52033C60.708 8.20594 58.3264 7.54377 56.6843 8.40616L56.3553 8.55983C55.9575 8.72372 16.5028 24.9667 12.2949 26.724C9.35143 27.9534 8.30267 30.9989 8.30267 33.4391C8.30267 33.6174 8.29807 33.8769 8.29153 34.2121C7.95526 51.5755 11.9638 94.3011 56.2378 116.785Z" fill="#3F3D56"/>
<path d="M54.8699 4.87099C54.8699 4.87099 15.0567 21.2613 10.791 23.0428C6.52528 24.8244 4.39243 29.1001 4.39243 33.3759C4.39243 37.6516 1.19314 93.444 54.8699 120.42C54.8699 120.42 59.7418 121.771 63.4375 120.42C67.1337 119.068 114.057 96.2645 114.057 33.1977C114.057 33.1977 114.057 26.7841 106.592 23.221C99.1266 19.6579 63.0347 4.87099 63.0347 4.87099C63.0347 4.87099 58.6022 2.91127 54.8699 4.87099Z" fill="#6C63FF"/>
<path opacity="0.2" d="M59.1357 17.7615V105.198C59.1357 105.198 99.3045 85.8167 98.9488 34.8644L59.1357 17.7615Z" fill="black"/>
</g>
<defs>
<clipPath id="clip0_61_20">
<rect width="118" height="125" fill="white"/>
</clipPath>
</defs>
</svg>
