<svg width="536" height="440" viewBox="0 0 536 440" fill="none" xmlns="http://www.w3.org/2000/svg">
<g clip-path="url(#clip0_17_9)">
<path d="M74.6539 133.941L71.205 112.852L61.467 110.418C61.467 110.418 53.7382 108.039 51.9317 123.599C50.1253 139.159 51.5257 168.211 51.5257 168.211L30.1454 235.884C28.5037 236.664 27.1216 237.901 26.1646 239.445C25.2076 240.99 24.7163 242.777 24.7494 244.594C24.7825 246.41 25.3386 248.179 26.3512 249.688C27.3639 251.196 28.7901 252.381 30.4591 253.101C32.1281 253.821 33.9693 254.044 35.7621 253.745C37.555 253.446 39.2235 252.636 40.5681 251.414C41.9127 250.191 42.8762 248.607 43.3435 246.851C43.8107 245.096 43.7617 243.242 43.2025 241.514L71.0022 177.945L74.6539 133.941Z" fill="#FFB7B7"/>
<path d="M133.871 117.345L128.759 96.5955L136.759 90.5358C136.759 90.5358 142.932 85.3143 150.706 98.916C158.48 112.518 168.604 139.786 168.604 139.786L214.851 193.634C216.667 193.707 218.424 194.302 219.911 195.347C221.398 196.392 222.552 197.843 223.235 199.526C223.918 201.21 224.101 203.055 223.763 204.84C223.424 206.625 222.578 208.274 221.325 209.591C220.073 210.908 218.468 211.836 216.701 212.264C214.935 212.693 213.082 212.603 211.365 212.007C209.649 211.41 208.14 210.331 207.021 208.9C205.901 207.468 205.218 205.745 205.054 203.936L154.515 156.382L133.871 117.345Z" fill="#FFB7B7"/>
<path d="M173.836 427.986L185.433 427.985L190.951 383.275L173.834 383.276L173.836 427.986Z" fill="#FFB7B7"/>
<path d="M170.878 424.201L193.717 424.201H193.718C197.578 424.201 201.28 425.734 204.009 428.462C206.739 431.19 208.272 434.89 208.273 438.748V439.221L170.879 439.222L170.878 424.201Z" fill="#2F2E41"/>
<path d="M28.1606 427.986L39.7576 427.985L45.275 383.275L28.1582 383.276L28.1606 427.986Z" fill="#FFB7B7"/>
<path d="M25.2023 424.201L48.0412 424.201H48.0421C51.9022 424.201 55.6041 425.734 58.3336 428.462C61.0631 431.19 62.5967 434.89 62.5969 438.748V439.221L25.203 439.222L25.2023 424.201Z" fill="#2F2E41"/>
<path d="M99.2872 77.6065C116.61 77.6065 130.654 63.57 130.654 46.255C130.654 28.9401 116.61 14.9035 99.2872 14.9035C81.9641 14.9035 67.9209 28.9401 67.9209 46.255C67.9209 63.57 81.9641 77.6065 99.2872 77.6065Z" fill="#2F2E41"/>
<path d="M74.8041 29.3511C79.8728 24.2848 80.9 17.0975 77.0985 13.2978C73.297 9.4981 66.1063 10.5248 61.0376 15.5911C55.969 20.6574 54.9417 27.8447 58.7432 31.6445C62.5447 35.4442 69.7354 34.4174 74.8041 29.3511Z" fill="#2F2E41"/>
<path d="M131.979 19.395C134.091 14.4534 130.459 8.16576 123.867 5.35124C117.275 2.53671 110.219 4.26108 108.108 9.20272C105.996 14.1444 109.628 20.432 116.22 23.2465C122.811 26.061 129.867 24.3367 131.979 19.395Z" fill="#2F2E41"/>
<path d="M123.64 66.502C130.692 53.6078 125.951 37.4409 113.051 30.3923C100.15 23.3437 83.9759 28.0825 76.9239 40.9767C69.872 53.871 74.613 70.0378 87.5133 77.0864C100.414 84.135 116.588 79.3962 123.64 66.502Z" fill="#FFB7B7"/>
<path d="M72.3103 37.0032C78.3934 41.1939 85.6136 43.4242 93.0016 43.3947C90.3662 45.2211 87.366 46.4548 84.2077 47.0108C94.0306 49.1169 104.183 49.1739 114.028 47.1783C116.217 46.8275 118.329 46.1026 120.271 45.0352C121.239 44.4949 122.082 43.7571 122.746 42.8696C123.41 41.9822 123.88 40.965 124.124 39.8843C124.779 36.1484 121.866 32.7543 118.84 30.4668C114.206 27.018 108.863 24.6418 103.197 23.5102C97.5316 22.3787 91.6853 22.5199 86.0811 23.9238C82.4218 24.8693 78.7559 26.4667 76.3791 29.4041C74.0023 32.3414 73.2982 36.8698 75.5627 39.8945L72.3103 37.0032Z" fill="#2F2E41"/>
<path d="M86.9409 88.34L60.5928 109.847L83.6143 164.713L84.0534 173.492C84.0534 173.492 60.155 195.516 45.3681 257.04C30.5812 318.563 0.71582 400.314 0.71582 400.314L60.4629 414.923L102.004 275.75L154.959 384.935L162.492 417.23L208.677 404.415L190.852 317.749L147.135 183.224L150.725 146.06C150.725 146.06 158.724 127.51 144.827 107.871L140.468 89.4167L117.902 85.5721L86.9409 88.34Z" fill="#2F2E41"/>
<path d="M529.998 283.595H347.072C345.611 283.594 344.211 283.013 343.178 281.981C342.145 280.948 341.564 279.548 341.562 278.088V216.408C341.564 214.947 342.145 213.548 343.178 212.515C344.211 211.483 345.611 210.902 347.072 210.9H529.998C531.458 210.902 532.859 211.483 533.892 212.515C534.925 213.548 535.506 214.947 535.508 216.408V278.088C535.506 279.548 534.925 280.948 533.892 281.981C532.859 283.013 531.458 283.594 529.998 283.595Z" fill="white"/>
<path d="M418.7 227.422H370.213V232.929H418.7V227.422Z" fill="black"/>
<path d="M482.613 234.031C484.439 234.031 485.919 232.551 485.919 230.726C485.919 228.901 484.439 227.422 482.613 227.422C480.788 227.422 479.307 228.901 479.307 230.726C479.307 232.551 480.788 234.031 482.613 234.031Z" fill="black"/>
<path d="M493.633 234.031C495.459 234.031 496.939 232.551 496.939 230.726C496.939 228.901 495.459 227.422 493.633 227.422C491.807 227.422 490.327 228.901 490.327 230.726C490.327 232.551 491.807 234.031 493.633 234.031Z" fill="black"/>
<path d="M504.653 234.031C506.478 234.031 507.958 232.551 507.958 230.726C507.958 228.901 506.478 227.422 504.653 227.422C502.827 227.422 501.347 228.901 501.347 230.726C501.347 232.551 502.827 234.031 504.653 234.031Z" fill="black"/>
<path d="M529.998 361.798H347.072C345.611 361.796 344.211 361.215 343.178 360.183C342.145 359.15 341.564 357.751 341.562 356.29V294.61C341.564 293.15 342.145 291.75 343.178 290.717C344.211 289.685 345.611 289.104 347.072 289.103H529.998C531.458 289.104 532.859 289.685 533.892 290.717C534.925 291.75 535.506 293.15 535.508 294.61V356.29C535.506 357.751 534.925 359.15 533.892 360.183C532.859 361.215 531.458 361.796 529.998 361.798Z" fill="white"/>
<path d="M418.7 305.624H370.213V311.131H418.7V305.624Z" fill="black"/>
<path d="M482.613 312.233C484.439 312.233 485.919 310.754 485.919 308.929C485.919 307.104 484.439 305.624 482.613 305.624C480.788 305.624 479.307 307.104 479.307 308.929C479.307 310.754 480.788 312.233 482.613 312.233Z" fill="black"/>
<path d="M493.633 312.233C495.459 312.233 496.939 310.754 496.939 308.929C496.939 307.104 495.459 305.624 493.633 305.624C491.807 305.624 490.327 307.104 490.327 308.929C490.327 310.754 491.807 312.233 493.633 312.233Z" fill="black"/>
<path d="M504.653 312.233C506.478 312.233 507.958 310.754 507.958 308.929C507.958 307.104 506.478 305.624 504.653 305.624C502.827 305.624 501.347 307.104 501.347 308.929C501.347 310.754 502.827 312.233 504.653 312.233Z" fill="black"/>
<path d="M529.998 440H347.072C345.611 439.998 344.211 439.418 343.178 438.385C342.145 437.353 341.564 435.953 341.562 434.493V372.812C341.564 371.352 342.145 369.952 343.178 368.92C344.211 367.887 345.611 367.307 347.072 367.305H529.998C531.458 367.307 532.859 367.887 533.892 368.92C534.925 369.952 535.506 371.352 535.508 372.812V434.493C535.506 435.953 534.925 437.353 533.892 438.385C532.859 439.418 531.458 439.998 529.998 440Z" fill="white"/>
<path d="M418.7 383.827H370.213V389.334H418.7V383.827Z" fill="black"/>
<path d="M482.613 390.435C484.439 390.435 485.919 388.956 485.919 387.131C485.919 385.306 484.439 383.827 482.613 383.827C480.788 383.827 479.307 385.306 479.307 387.131C479.307 388.956 480.788 390.435 482.613 390.435Z" fill="black"/>
<path d="M493.633 390.435C495.459 390.435 496.939 388.956 496.939 387.131C496.939 385.306 495.459 383.827 493.633 383.827C491.807 383.827 490.327 385.306 490.327 387.131C490.327 388.956 491.807 390.435 493.633 390.435Z" fill="black"/>
<path d="M504.653 390.435C506.478 390.435 507.958 388.956 507.958 387.131C507.958 385.306 506.478 383.827 504.653 383.827C502.827 383.827 501.347 385.306 501.347 387.131C501.347 388.956 502.827 390.435 504.653 390.435Z" fill="black"/>
<path d="M310.488 307.004C307.004 306.992 303.535 306.544 300.163 305.669L299.498 305.485L298.881 305.176C276.589 294.005 257.783 279.249 242.984 261.318C230.734 246.388 221.183 229.437 214.761 211.226C207.081 189.423 203.386 166.418 203.853 143.308C203.862 142.823 203.87 142.448 203.87 142.19C203.87 130.957 210.109 121.1 219.764 117.079C227.153 114.001 294.245 86.4569 299.093 84.4668C308.222 79.8946 317.961 83.7108 319.52 84.3781C323.016 85.8068 385.038 111.163 398.441 117.542C412.254 124.116 415.94 135.927 415.94 141.87C415.94 168.772 411.278 193.915 402.085 216.599C394.66 234.961 384.137 251.912 370.974 266.714C345.577 295.281 320.174 305.408 319.929 305.497C316.893 306.541 313.698 307.051 310.488 307.004ZM304.514 292.213C306.716 292.706 311.787 293.447 315.092 292.242C319.29 290.711 340.553 279.691 360.422 257.342C387.874 226.463 401.803 187.646 401.823 141.969C401.774 141.044 401.117 134.443 392.372 130.281C379.229 124.026 314.762 97.6776 314.112 97.4121L313.934 97.3366C312.583 96.7707 308.284 95.5788 305.32 97.1311L304.726 97.4077C304.008 97.7027 232.789 126.94 225.193 130.103C219.88 132.316 217.987 137.798 217.987 142.19C217.987 142.511 217.979 142.978 217.967 143.582C217.36 174.836 224.596 251.742 304.514 292.213Z" fill="#3F3D56"/>
<path d="M302.045 90.8816C302.045 90.8816 230.179 120.384 222.479 123.591C214.779 126.798 210.929 134.494 210.929 142.19C210.929 149.887 205.154 250.313 302.045 298.869C302.045 298.869 310.839 301.302 317.51 298.869C324.182 296.437 408.882 255.39 408.882 141.87C408.882 141.87 408.882 130.325 395.407 123.912C381.932 117.498 316.783 90.8816 316.783 90.8816C316.783 90.8816 308.782 87.3542 302.045 90.8816Z" fill="#6C63FF"/>
<path opacity="0.2" d="M309.745 113.971V271.356C309.745 271.356 382.253 236.47 381.611 144.756L309.745 113.971Z" fill="black"/>
</g>
<defs>
<clipPath id="clip0_17_9">
<rect width="536" height="439.745" fill="white" transform="translate(0 0.255096)"/>
</clipPath>
</defs>
</svg>
